{"title":"Supreme.Champion.2010.BRRip.XviD.Ac3.Feel-Free","uid":6917866,"size":1119797249,"categoryP":"video","categoryS":"movies","magnet":"?xt=urn:btih:39e74003c74a0a2e133d0b22df5de45bdcb9ed02&amp;dn=Supreme.Champion.2010.BRRip.XviD.Ac3.Feel-Free&amp;tr=udp%3A%2F%2Ftracker.openbittorrent.com%3A80&amp;tr=udp%3A%2F%2Fopen.demonii.com%3A1337&amp;tr=udp%3A%2F%2Ftracker.coppersurfer.tk%3A6969&amp;tr=udp%3A%2F%2Fexodus.desync.com%3A6969","seeders":0,"leechers":0,"uploader":"maximersk","files":2,"time":1325095035,"description":"Supreme.Champion.2010.BRRip.XviD.Ac3.Feel-Free\n\n\n\n\n\n\n\n\nPLOT: She was in trouble and only he could save her. Troy Jennings (Bonnar) is a MMA champion who is still on the road of his title reign. However, his world is about to be turned upside down. When Jenny (Marieh Delfino), a former flame turned platonic friend, tells him she owes a major gambling debt, Jennings decides he must try to help. Despite efforts from his strip club owner pals Clu (Ted Fox) and Mick (George Saunders), Jennings receives a phone call and Jenny finds herself kidnapped.\n\n\n\nGeneral Information\n\nGenre: Action\nLanguage:English\nIMDb: http://www.imdb.com/title/tt1283546/\nSource:.1080p.BluRay.x264.BRMP Thanks!\nFormat : AVI\nFormat/Info : Audio Video Interleave\nFile size : 1.04 GiB\nDuration : 1h 26mn\nOverall bit rate : 1 733 Kbps\n\nVideo Information\n\nID : 0\nFormat : MPEG-4 Visual\nFormat profile : Advanced Simple@L5\nFormat settings, BVOP : Yes\nFormat settings, QPel : No\nFormat settings, GMC : No warppoints\nFormat settings, Matrix : Default (H.263)\nCodec ID : XVID\nCodec ID/Hint : XviD\nDuration : 1h 26mn\nBit rate : 1 275 Kbps\nWidth : 640 pixels\nHeight : 360 pixels\nDisplay aspect ratio : 16:9\nFrame rate : 23.976 fps\nColor space : YUV\nChroma subsampling : 4:2:0\nBit depth : 8 bits\nScan type : Progressive\nBits/(Pixel*Frame) : 0.231\nStream size : 786 MiB (74%)\nWriting library : XviD 1.2.1 (UTC 2008-12-04)\n\nAudio Information\n\nID : 1\nFormat : AC-3\nFormat/Info : Audio Coding 3\nMode extension : CM (complete main)\nCodec ID : 2000\nDuration : 1h 26mn\nBit rate mode : Constant\nBit rate : 448 Kbps\nChannel(s) : 6 channels\nChannel positions : Front: L C R, Side: L R, LFE\nSampling rate : 48.0 KHz\nBit depth : 16 bits\nStream size : 276 MiB (26%)\nAlignment : Aligned on interleaves\nInterleave, duration : 42 ms (1.00 video frame)\nInterleave, preload duration : 512 ms\n\n\n\n\n","torrent":{"xt":"urn:btih:39e74003c74a0a2e133d0b22df5de45bdcb9ed02","amp;dn":"Supreme.Champion.2010.BRRip.XviD.Ac3.Feel-Free","amp;tr":["udp%3A%2F%2Ftracker.openbittorrent.com%3A80","udp%3A%2F%2Fopen.demonii.com%3A1337","udp%3A%2F%2Ftracker.coppersurfer.tk%3A6969","udp%3A%2F%2Fexodus.desync.com%3A6969"],"infoHash":"39e74003c74a0a2e133d0b22df5de45bdcb9ed02","infoHashBuffer":{"type":"Buffer","data":[57,231,64,3,199,74,10,46,19,61,11,34,223,93,228,91,220,185,237,2]},"announce":[],"urlList":[]}}